<svg xmlns="http://www.w3.org/2000/svg" xmlns:xlink="http://www.w3.org/1999/xlink" width="124.11327" height="26.77381" viewBox="0 0 124.11327 26.77381">
  <defs>
    <symbol id="a" data-name="White_Solid" viewBox="0 0 25.163 25.163">
      <path d="M24.665,3.35321a5.326,5.326,0,0,0-3.38091-3.033A10.95611,10.95611,0,0,0,18.24294,0H6.91979A10.95611,10.95611,0,0,0,3.87864.32024a5.326,5.326,0,0,0-3.38091,3.033A9.86307,9.86307,0,0,0,0,6.91972V18.24294a9.86307,9.86307,0,0,0,.49773,3.56651,5.326,5.326,0,0,0,3.38091,3.033,10.95611,10.95611,0,0,0,3.04115.32024H18.24294a10.95611,10.95611,0,0,0,3.04115-.32024,5.326,5.326,0,0,0,3.38091-3.033,9.86283,9.86283,0,0,0,.49766-3.56651V6.91972A9.86283,9.86283,0,0,0,24.665,3.35321Zm-6.3088,13.95341a2.3331,2.3331,0,0,1-.36653.86326,2.19508,2.19508,0,0,1-.68843.63668,2.74433,2.74433,0,0,1-.874.3178,3.3446,3.3446,0,0,1-1.34936.06833,1.87928,1.87928,0,0,1-.9079-.461,1.95637,1.95637,0,0,1-.09919-2.81,2.18135,2.18135,0,0,1,.81632-.52465,8.53745,8.53745,0,0,1,1.3841-.35031q.24406-.0492.48826-.09847a.84762.84762,0,0,0,.5456-.27876.91272.91272,0,0,0,.15151-.62039l.00014-5.54523c0-.42409-.19019-.53965-.5952-.46185-.28945.05648-6.50617,1.31025-6.50617,1.31025-.35067.08469-.4739.19931-.4739.63438l.00014,8.12518a4.27936,4.27936,0,0,1-.08368.92032,2.33425,2.33425,0,0,1-.36661.86333,2.194,2.194,0,0,1-.68843.63661,2.75352,2.75352,0,0,1-.874.32247,3.34456,3.34456,0,0,1-1.34936.06833,1.88559,1.88559,0,0,1-.9079-.46558,1.99119,1.99119,0,0,1-.09912-2.81,2.18016,2.18016,0,0,1,.81625-.52465,8.53944,8.53944,0,0,1,1.3841-.35031q.24406-.0492.48826-.09847a.84778.84778,0,0,0,.5456-.27876.91641.91641,0,0,0,.165-.61608V6.4217a1.65067,1.65067,0,0,1,.01737-.2522.7605.7605,0,0,1,.25163-.4856A1.04382,1.04382,0,0,1,9.647,5.47425l.00287-.00057,7.47881-1.50891c.06488-.01321.60539-.10916.66618-.11447.40421-.03488.63122.23053.63122.6613l.00036,11.87033A4.304,4.304,0,0,1,18.35619,17.30661Z" fill="#fff"/>
    </symbol>
  </defs>
  <title>US-UK Wht Solid</title>
  <g>
    <g>
      <path d="M33.07323,7.53748h-.88965L30.55077,1.48182h.97754l1.1123,4.63672h.05859l1.26367-4.63672H34.835l1.27148,4.63672H36.165l1.1084-4.63672H38.251L36.61425,7.53748h-.88477L34.42773,3.09314h-.05859Z" fill="#fff"/>
      <path d="M38.67773,6.24451c0-.82227.6123-1.2959,1.69922-1.36328l1.23828-.07129V4.41541c0-.48242-.31934-.75586-.93555-.75586-.50391,0-.85254.18555-.95312.50781h-.87207c.0918-.78418.83008-1.28809,1.86719-1.28809,1.14551,0,1.791.57129,1.791,1.53613V7.53748h-.86816V6.8949h-.07129a1.53649,1.53649,0,0,1-1.37207.71777A1.38107,1.38107,0,0,1,38.67773,6.24451Zm2.9375-.38965V5.473L40.499,5.54432c-.62988.042-.915.25586-.915.6582,0,.41113.35742.65039.84766.65039A1.07693,1.07693,0,0,0,41.61523,5.85486Z" fill="#fff"/>
      <path d="M45.13866,1.83045v1.1582h.99121v.75977h-.99121V6.098c0,.47852.19727.68848.64648.68848a2.95485,2.95485,0,0,0,.34473-.02148v.751a2.903,2.903,0,0,1-.49121.04688c-1.00293,0-1.40137-.35254-1.40137-1.23437V3.74842h-.72656V2.98865h.72656V1.83045Z" fill="#fff"/>
      <path d="M50.25585,4.46131a1.01909,1.01909,0,0,0-1.07812-.77637c-.75586,0-1.2168.5791-1.2168,1.55273,0,.99023.46582,1.582,1.2168,1.582a.99155.99155,0,0,0,1.07813-.751h.877a1.78739,1.78739,0,0,1-1.95117,1.55664,2.09845,2.09845,0,0,1-2.14355-2.3877,2.08334,2.08334,0,0,1,2.13965-2.3584,1.80206,1.80206,0,0,1,1.95508,1.582Z" fill="#fff"/>
      <path d="M52.32421,1.184h.89355V3.70154h.07129a1.40681,1.40681,0,0,1,1.39258-.81738,1.505,1.505,0,0,1,1.57422,1.70313v2.9502h-.90234V4.80994c0-.73047-.33984-1.09961-.97754-1.09961a1.0671,1.0671,0,0,0-1.15039,1.1582V7.53748h-.90137Z" fill="#fff"/>
      <path d="M59.89159,5.25037a2.16421,2.16421,0,1,1,4.30859,0,2.16455,2.16455,0,1,1-4.30859,0Zm3.38184,0c0-.99023-.44531-1.56934-1.22559-1.56934-.78418,0-1.22559.5791-1.22559,1.56934,0,.999.44141,1.57324,1.22559,1.57324C62.82812,6.82361,63.27343,6.24451,63.27343,5.25037Z" fill="#fff"/>
      <path d="M65.40429,2.96717h.86816v.72656h.06738a1.36778,1.36778,0,0,1,1.36328-.81445,1.48683,1.48683,0,0,1,1.582,1.69922v2.959h-.90234V4.80506c0-.7334-.31836-1.09863-.98535-1.09863a1.048,1.048,0,0,0-1.0918,1.1582V7.53748h-.90137Z" fill="#fff"/>
    </g>
    <g>
      <path d="M38.18652,20.42225h-4.7334L32.3164,23.77869H30.31152l4.4834-12.41895h2.083l4.4834,12.41895H39.32226Zm-4.24316-1.54883h3.75193L35.8457,13.42518h-.05176Z" fill="#fff"/>
      <path d="M51.04394,19.25232c0,2.81348-1.50586,4.62109-3.77832,4.62109a3.0693,3.0693,0,0,1-2.84863-1.584h-.043v4.48438h-1.8584V14.725h1.79883v1.50586h.03418a3.21162,3.21162,0,0,1,2.88281-1.60059C49.52929,14.63025,51.04394,16.44666,51.04394,19.25232Zm-1.91016,0c0-1.833-.94727-3.03809-2.39258-3.03809-1.41992,0-2.375,1.23047-2.375,3.03809,0,1.82422.95508,3.0459,2.375,3.0459C48.18652,22.29822,49.13378,21.10193,49.13378,19.25232Z" fill="#fff"/>
      <path d="M61.00878,19.25232c0,2.81348-1.50586,4.62109-3.77832,4.62109a3.0693,3.0693,0,0,1-2.84863-1.584h-.043v4.48438h-1.8584V14.725h1.79883v1.50586h.03418a3.21162,3.21162,0,0,1,2.88281-1.60059C59.49413,14.63025,61.00878,16.44666,61.00878,19.25232Zm-1.91016,0c0-1.833-.94727-3.03809-2.39258-3.03809-1.41992,0-2.375,1.23047-2.375,3.03809,0,1.82422.95508,3.0459,2.375,3.0459C58.15136,22.29822,59.09863,21.10193,59.09863,19.25232Z" fill="#fff"/>
      <path d="M62.51366,11.35975H64.373V23.77869H62.51366Z" fill="#fff"/>
      <path d="M74.04882,21.11951c-.25,1.64355-1.85059,2.77148-3.89844,2.77148-2.63379,0-4.26855-1.76465-4.26855-4.5957,0-2.83984,1.64355-4.68164,4.19043-4.68164,2.50488,0,4.08008,1.7207,4.08008,4.46582v.63672H67.75781v.1123a2.358,2.358,0,0,0,2.43555,2.56445,2.04834,2.04834,0,0,0,2.09082-1.27344Zm-6.28223-2.70215H72.293a2.1773,2.1773,0,0,0-2.2207-2.29785A2.292,2.292,0,0,0,67.76659,18.41736Z" fill="#fff"/>
      <path d="M90.19528,23.77869V14.639h-.06053L86.39159,23.684H84.96288L81.21,14.639h-.05957v9.13965H79.39452V11.35975H81.624l4.01855,9.80273h.06836l4.01074-9.80273H91.959V23.77869Z" fill="#fff"/>
      <path d="M101.86913,23.77869h-1.78125V22.22107h-.043a2.83072,2.83072,0,0,1-2.80566,1.66113,3.01881,3.01881,0,0,1-3.17578-3.34766V14.725h1.8584v5.44824c0,1.377.6543,2.1084,1.93652,2.1084a2.09692,2.09692,0,0,0,2.15137-2.34082V14.725h1.85938Z" fill="#fff"/>
      <path d="M107.16308,14.62244c2.00586,0,3.44238,1.10938,3.48535,2.71h-1.74707c-.07715-.7998-.75684-1.29-1.79-1.29-1.00684,0-1.67773.46387-1.67773,1.16992,0,.542.44727.90332,1.38574,1.13574l1.52344.35352c1.82422.43848,2.5127,1.10938,2.5127,2.43555,0,1.63477-1.54883,2.75391-3.76074,2.75391-2.13477,0-3.57129-1.09375-3.709-2.74609h1.84082c.12988.86914.82617,1.334,1.9541,1.334,1.11035,0,1.80664-.45605,1.80664-1.17871,0-.55957-.34375-.86035-1.29-1.10156l-1.61816-.39551c-1.63477-.39648-2.46094-1.23145-2.46094-2.4873C103.61816,15.71521,105.05468,14.62244,107.16308,14.62244Z" fill="#fff"/>
      <path d="M112.30956,12.34119a1.0803,1.0803,0,1,1,1.0752,1.05859A1.06864,1.06864,0,0,1,112.30956,12.34119ZM112.456,14.725h1.8584v9.05371H112.456Z" fill="#fff"/>
      <path d="M122.32323,17.84021a1.99909,1.99909,0,0,0-2.13379-1.66895c-1.42871,0-2.376,1.19629-2.376,3.08105,0,1.92773.95605,3.08887,2.39258,3.08887a1.94829,1.94829,0,0,0,2.11719-1.626h1.79a3.61835,3.61835,0,0,1-3.92383,3.17578c-2.582,0-4.26855-1.76465-4.26855-4.63867,0-2.81445,1.68652-4.63867,4.251-4.63867a3.63994,3.63994,0,0,1,3.9248,3.22656Z" fill="#fff"/>
    </g>
    <use width="25.16265" height="25.16265" xlink:href="#a"/>
  </g>
</svg>
